<svg width="232" height="169" viewBox="0 0 232 169" fill="none" xmlns="http://www.w3.org/2000/svg">
<path d="M196.049 97.2091C194.636 97.6441 192.57 98.5139 190.286 99.9275C187.785 101.45 185.611 102.863 185.719 104.494C185.828 106.017 188.003 106.343 189.851 108.952C191.048 110.584 191.482 112.323 191.7 113.519C192.352 114.063 193.331 114.824 194.745 115.259C198.659 116.238 201.051 112.867 206.379 110.692C211.272 108.735 213.556 109.931 217.253 109.387C217.688 109.279 219.101 109.061 220.732 108.409C222.146 107.865 224.647 106.669 227.039 104.059C227.148 103.407 227.148 102.428 226.604 101.559C224.864 98.6227 218.666 100.362 211.49 99.71C208.445 99.4925 203.987 98.6226 198.659 96.2305" stroke="#111111" stroke-width="0.75" stroke-miterlimit="10"/>
<path d="M181.588 100.906C181.044 100.472 180.609 99.7104 180.935 97.6444C181.914 97.9707 182.892 98.1881 183.871 98.5143C185.067 98.623 186.263 97.9706 186.807 96.992C187.568 95.7959 187.35 94.0562 186.154 92.9688C185.502 92.5339 184.741 92.2077 184.088 91.7728C184.197 91.5553 184.415 91.2291 184.85 90.7941C185.176 90.4679 185.502 90.1417 185.937 90.033C186.916 89.8155 187.894 90.9029 188.003 91.1203C188.764 91.9902 188.547 92.5339 189.308 93.8387C189.743 94.4911 190.178 94.926 190.395 95.1435C192.244 96.8833 194.744 97.2095 196.158 97.427C196.919 97.5357 197.463 97.5357 197.898 97.5357C198.007 97.8619 198.115 98.4056 198.115 99.1667C198.115 99.4929 197.898 100.798 196.049 102.538C194.527 104.06 192.026 106.234 190.069 105.473C189.634 105.365 189.09 105.038 188.329 104.495C188.003 104.277 187.351 103.951 186.589 103.299C185.176 102.211 185.285 102.103 184.741 101.776C183.327 100.798 182.349 101.559 181.588 100.906Z" fill="#EAE8D3"/>
<path d="M198.767 96.1224C198.333 96.1224 197.898 96.0136 197.68 95.5787C197.463 95.2525 197.571 95.035 197.571 94.6C197.571 93.7302 196.919 92.6428 196.375 92.6428C195.505 92.5341 194.092 95.2525 194.853 96.4485C195.505 97.4272 197.245 96.666 197.898 97.5359C198.768 98.8407 196.593 102.646 193.548 104.277C192.787 104.712 190.504 105.908 188.981 104.93C188.873 104.93 188.873 104.93 188.764 104.821C187.677 104.06 186.698 103.408 185.937 102.973" stroke="#111111" stroke-width="0.75" stroke-miterlimit="10"/>
<path d="M197.463 97.1006C201.16 97.753 203.552 98.9491 205.074 99.819C205.727 100.254 207.032 101.124 208.336 100.798C209.206 100.58 209.859 99.9277 210.185 99.384" stroke="#111111" stroke-width="0.75" stroke-miterlimit="10"/>
<path d="M226.93 101.885C227.148 102.428 227.256 103.407 227.039 104.494C226.93 104.929 226.495 106.343 224.103 107.974C222.037 109.279 219.862 109.931 217.144 110.257C212.033 110.91 211.925 109.822 209.206 110.475C203.77 111.671 203.008 116.238 198.659 116.564C197.028 116.673 194.745 116.238 191.7 113.628" stroke="#111111" stroke-width="0.75" stroke-miterlimit="10"/>
<path d="M199.747 54.9108C198.659 55.8895 197.028 57.5205 195.506 59.6952C193.875 62.0874 192.353 64.2621 193.114 65.7844C193.875 67.1979 195.941 66.5455 198.659 68.1765C200.399 69.2639 201.486 70.6775 202.139 71.6561C203.009 71.9823 204.205 72.1997 205.618 71.9823C209.642 71.3299 210.403 67.3067 214.535 63.1747C218.34 59.4777 220.841 59.6952 223.995 57.6292C224.321 57.4118 225.517 56.6506 226.822 55.3458C227.909 54.2585 229.649 52.1925 230.845 48.8217C230.627 48.1693 230.301 47.1907 229.431 46.647C226.713 44.581 221.711 48.713 214.861 50.9964C211.925 51.975 207.576 53.0624 201.704 52.8449" stroke="#111111" stroke-width="0.75" stroke-miterlimit="10"/>
<path d="M187.786 64.0447C187.351 63.9359 187.133 63.7185 186.807 63.3923C185.937 62.5224 185.828 61.5438 185.72 61.1088C186.807 61.0001 187.786 61.0001 188.873 60.8913C189.091 60.7826 189.852 60.5651 190.287 59.9127C190.722 59.2603 190.613 58.6079 190.613 58.173C190.504 56.6507 189.417 55.6721 188.982 55.3459C188.112 55.2371 187.242 55.1284 186.372 55.1284C186.372 54.8022 186.481 54.1498 186.698 53.4974C186.916 52.9537 187.025 52.6275 187.351 52.3013C188.112 51.7576 189.525 52.3013 189.743 52.41C190.83 52.9537 190.83 53.4973 192.026 54.3672C192.679 54.8022 193.222 55.0197 193.549 55.1284C195.941 55.9983 198.333 55.3458 199.747 54.9109C200.399 54.6934 200.943 54.476 201.378 54.3672C201.595 54.6934 201.921 55.1284 202.139 55.7808C202.247 56.107 202.574 57.3031 201.595 59.6953C200.725 61.6525 199.42 64.5883 197.246 64.8058C196.811 64.8058 196.158 64.8058 195.288 64.5884C194.854 64.4796 194.201 64.3709 193.222 64.1534C191.483 63.7184 191.591 63.501 190.83 63.501C189.417 63.2835 188.873 64.2621 187.786 64.0447Z" fill="#EAE8D3"/>
<path d="M201.813 52.8446C201.486 52.9534 200.943 53.0621 200.616 52.8446C200.29 52.6271 200.29 52.301 200.182 51.9747C199.747 51.1049 198.768 50.4524 198.333 50.5612C197.572 50.8874 197.246 53.8232 198.442 54.6931C199.42 55.3455 200.725 53.932 201.704 54.4756C203.117 55.3455 202.465 59.6949 200.29 62.4133C199.747 63.0657 198.116 65.023 196.376 64.9142C196.267 64.9142 196.267 64.9142 196.158 64.9142C194.853 64.6967 193.766 64.4793 192.896 64.3705" stroke="#111111" stroke-width="0.75" stroke-miterlimit="10"/>
<path d="M200.943 54.2581C204.64 53.3882 207.249 53.497 208.989 53.8232C209.75 53.9319 211.272 54.2581 212.36 53.3882C213.121 52.8446 213.338 51.9747 213.447 51.3223" stroke="#111111" stroke-width="0.75" stroke-miterlimit="10"/>
<path d="M229.866 46.9731C230.301 47.4081 230.845 48.278 230.954 49.3653C231.062 49.8003 231.171 51.2138 229.649 53.7147C228.344 55.7807 226.604 57.0855 224.212 58.4991C219.754 61.1087 219.21 60.1301 216.927 61.7611C212.36 65.0232 213.447 69.4813 209.642 71.5473C208.228 72.3084 205.945 72.8521 202.139 71.5473" stroke="#111111" stroke-width="0.75" stroke-miterlimit="10"/>
<path d="M226.822 46.3208C227.148 46.4295 227.474 46.647 227.692 46.9732C228.67 48.6042 226.061 52.6275 222.69 54.8022C220.189 56.3244 219.971 55.3458 216.818 56.9769C215.84 57.5205 212.36 59.4778 209.859 63.3922C208.663 65.2407 208.88 65.5669 207.684 67.198C206.053 69.4814 204.096 70.895 202.683 71.6561" stroke="#111111" stroke-width="0.75" stroke-miterlimit="10"/>
<path d="M216.927 50.3438C216.709 50.67 215.622 52.0835 216.057 53.2796C216.601 54.8019 219.21 55.998 222.364 54.9106" stroke="#111111" stroke-width="0.75" stroke-miterlimit="10"/>
<path d="M116.781 117.108C119.608 112.214 122.762 108.735 125.698 106.125C146.901 87.5316 179.521 96.9915 183.871 98.2964C185.284 98.2964 186.589 97.4265 187.024 96.1217C187.35 94.9256 186.915 93.6207 185.937 92.7509C180.391 90.0325 173.106 87.2054 164.19 85.4656C148.097 82.421 134.505 84.5957 126.459 86.6617" fill="white"/>
<path d="M116.781 117.108C119.608 112.214 122.762 108.735 125.698 106.125C146.901 87.5316 179.521 96.9915 183.871 98.2964C185.284 98.2964 186.589 97.4265 187.024 96.1217C187.35 94.9256 186.915 93.6207 185.937 92.7509C180.391 90.0325 173.106 87.2054 164.19 85.4656C148.097 82.421 134.505 84.5957 126.459 86.6617" stroke="#111111" stroke-width="0.75" stroke-miterlimit="10"/>
<path d="M79.159 161.471C81.8774 162.123 87.7492 163.211 94.4907 161.254C95.5781 160.927 105.364 157.991 111.345 148.64C116.129 141.138 115.368 134.613 116.02 125.262C116.673 116.89 117.869 100.036 125.698 87.5311C140.812 63.3919 176.694 61.1085 179.956 60.891C183.436 60.6735 186.372 60.7823 188.22 60.891C189.634 60.4561 190.613 59.1512 190.613 57.7377C190.613 56.2154 189.416 55.2368 189.308 55.1281C180.283 54.1494 143.421 51.1049 113.084 75.8965C99.1663 87.2049 91.7723 100.144 88.8365 106.016C76.7669 129.938 78.1804 152.337 79.159 161.471Z" fill="white" stroke="#111111" stroke-width="0.75" stroke-miterlimit="10"/>
<path d="M70.1341 61.3266C69.1555 59.0432 73.6136 56.8685 73.8311 51.8667C73.9398 50.5618 73.6136 50.1269 73.3961 49.1483C73.3961 49.1483 73.2874 48.7133 73.2874 48.0609C73.1787 47.0823 73.6136 43.1679 74.8097 37.8398C78.0717 41.2106 81.3338 44.4727 84.5958 47.8435C81.0076 51.323 79.5941 52.6278 78.9417 52.8453C78.8329 52.954 78.1805 53.1715 77.7455 53.8239C77.5281 54.0414 77.4193 54.2588 77.4193 54.3676C76.332 56.3248 76.7669 57.1947 75.897 59.2606C75.3534 60.5655 74.5922 62.414 73.1786 62.6314C71.9826 62.9576 70.6778 62.414 70.1341 61.3266Z" fill="white" stroke="#111111" stroke-width="0.75" stroke-miterlimit="10"/>
<path d="M88.5103 14.8967C83.8347 17.9413 80.4639 22.0732 78.5067 26.8576L61.1091 0C61.1091 0 52.3016 5.65424 51.2142 6.30666C50.1268 6.95907 94.5995 73.5049 94.5995 73.5049L104.277 67.3071L101.993 63.7188C107.213 63.9362 112.541 62.5227 117.325 59.4781C129.612 51.5404 133.2 35.1214 125.263 22.8344C117.216 10.5473 100.797 6.95906 88.5103 14.8967ZM111.997 50.3444C104.712 55.02 95.0344 52.954 90.3588 45.6687C85.6832 38.3835 87.7492 28.7061 95.0344 24.0305C102.32 19.3549 111.562 21.6383 116.346 28.9235C120.913 36.2088 119.282 45.6688 111.997 50.3444Z" fill="#111111"/>
<path d="M26.0964 72.6348C31.6419 72.7435 35.6651 74.0483 38.2748 75.1357C40.667 76.223 43.8202 77.9628 47.626 77.2016C48.8221 76.9841 49.8007 76.5492 50.3443 76.223C47.8434 79.4851 45.3426 82.8559 42.8417 86.1179C37.2962 81.6598 31.7507 77.2016 26.0964 72.6348Z" fill="#111111"/>
<path d="M89.5977 73.8314C88.4016 69.6995 96.3392 66.3287 95.3606 62.088C94.5995 58.7172 88.9452 56.76 89.4889 55.6726C89.5976 55.5639 89.7064 55.4552 89.9239 55.3464C92.6423 54.4766 95.1432 56.9774 96.1218 56.1076C96.8829 55.4552 96.2305 52.9543 95.3606 51.432V51.3232C93.9471 48.6048 91.6636 47.6262 91.8811 47.4088C92.0986 47.0826 94.9257 47.8437 97.2091 50.0184C99.0576 51.8669 99.71 53.8241 99.71 53.8241C99.71 53.8241 99.0576 51.8669 97.2091 50.0184C96.448 49.366 95.7956 48.8223 95.2519 48.4961C96.2305 48.3874 97.8615 48.3874 99.2751 49.2573C101.667 50.8883 102.32 54.0416 102.428 54.0416C102.537 54.0416 102.102 52.5193 101.124 51.1057C100.471 50.2359 99.8187 49.6922 99.2751 49.2573C100.58 49.2573 102.32 49.5835 103.407 50.7796C104.821 52.3018 104.386 54.5853 105.255 54.694C105.799 54.8028 106.125 53.6067 107.756 52.1931C108.409 51.5407 109.387 50.7796 109.605 50.8883C110.04 51.2145 108.735 53.9329 106.995 57.0862C105.256 60.3482 103.842 62.4142 103.842 62.4142C96.6654 73.2877 95.6869 76.876 93.0772 76.7672C91.6637 76.876 90.0326 75.4624 89.5977 73.8314Z" fill="white" stroke="#111111" stroke-width="0.75" stroke-miterlimit="10"/>
<path d="M76.3321 53.1714C75.4622 52.6278 74.2661 52.6278 73.3962 53.1714C70.4604 58.8257 67.3071 64.5886 64.0451 70.4603C59.5869 78.398 55.1288 85.9007 50.6707 93.0772C48.3872 92.8597 46.8649 93.4034 45.995 93.8383C43.3854 94.9257 41.9718 96.8829 40.667 98.5139C40.667 98.5139 39.3622 100.362 38.4923 102.102C36.1001 107.539 39.2534 115.15 40.0146 116.999C44.0378 126.785 47.6261 135.049 55.3463 146.249C59.152 151.794 63.9363 157.557 69.808 163.429C71.6565 165.277 73.2875 166.8 74.2661 167.669C76.3321 168.104 80.3553 168.539 85.1396 167.126C90.7938 165.386 94.2734 162.015 95.6869 160.384C94.7083 160.384 93.0773 160.384 91.3375 159.732C89.5978 159.188 88.4017 158.427 87.5318 157.775C86.7707 153.86 86.227 149.619 85.9008 145.161C84.7047 129.83 86.5532 116.347 89.0541 105.908C87.7493 104.929 86.0095 103.951 83.9436 102.972C82.2038 102.211 80.5728 101.559 79.1592 101.232C81.5514 98.2965 83.9436 95.1431 86.3358 91.8811C92.6424 82.9648 97.4267 74.3748 101.232 66.4371C101.015 66.1109 100.254 64.9148 98.7315 64.3711C96.9917 63.8275 95.4695 64.4799 95.1433 64.5886C85.6833 73.5049 76.3321 82.3124 66.8721 91.2287C70.4604 79.2678 74.0487 67.4157 77.6369 55.4548C77.5282 54.6937 77.0933 53.7151 76.3321 53.1714Z" fill="#111111"/>
<path d="M41.428 95.0347C41.9716 95.3609 43.4939 96.4482 43.9289 98.188C44.69 101.45 41.3192 104.93 39.4707 104.712C38.4921 104.603 38.4921 103.516 37.0786 102.211C35.5563 100.689 33.7077 100.036 32.2942 99.819" fill="white"/>
<path d="M41.428 95.0347C41.9716 95.3609 43.4939 96.4482 43.9289 98.188C44.69 101.45 41.3192 104.93 39.4707 104.712C38.4921 104.603 38.4921 103.516 37.0786 102.211C35.5563 100.689 33.7077 100.036 32.2942 99.819" stroke="#111111" stroke-width="0.75" stroke-miterlimit="10"/>
<path d="M38.1658 97.8613C40.0143 96.5565 41.4278 95.1429 42.2977 94.1643C46.5384 89.2712 46.9733 84.1607 46.6471 83.3996C46.4296 82.9646 46.2121 82.8559 45.451 82.3122C44.6898 81.6598 42.5152 79.2676 40.9929 77.5279C40.2317 76.658 39.0356 75.3532 37.4046 74.0483C37.4046 72.1998 37.1871 70.0251 36.426 69.8077C35.8823 69.6989 35.5561 70.5688 34.795 71.1125C31.6416 73.5047 25.8787 65.6757 20.4419 67.7417C19.8982 67.9592 19.4633 68.1767 19.2458 68.2854" fill="white"/>
<path d="M38.1658 97.8613C40.0143 96.5565 41.4278 95.1429 42.2977 94.1643C46.5384 89.2712 46.9733 84.1607 46.6471 83.3996C46.4296 82.9646 46.2121 82.8559 45.451 82.3122C44.6898 81.6598 42.5152 79.2676 40.9929 77.5279C40.2317 76.658 39.0356 75.3532 37.4046 74.0483C37.4046 72.1998 37.1871 70.0251 36.426 69.8077C35.8823 69.6989 35.5561 70.5688 34.795 71.1125C31.6416 73.5047 25.8787 65.6757 20.4419 67.7417C19.8982 67.9592 19.4633 68.1767 19.2458 68.2854" stroke="#111111" stroke-width="0.75" stroke-miterlimit="10"/>
<path d="M28.0533 75.1364C29.5756 76.5499 32.4027 75.4626 32.4027 74.9189C32.4027 74.1578 27.8359 72.8529 27.2922 73.7228C27.1835 74.049 27.7271 74.8102 28.0533 75.1364Z" fill="#1D1D1B" stroke="#111111" stroke-width="0.75" stroke-miterlimit="10"/>
<path d="M41.8631 81.3335C41.2107 81.8772 39.9059 82.8558 38.1661 82.6383C37.8399 82.6383 37.5137 82.5296 37.1875 82.4208" stroke="#111111" stroke-width="0.75" stroke-miterlimit="10"/>
<path d="M29.0323 86.7704C28.5973 87.3141 26.9663 88.8364 24.7916 88.6189C23.0518 88.4015 20.6597 86.8792 20.6597 85.1394C20.6597 83.6171 22.7257 82.6385 22.9431 82.5298" stroke="#111111" stroke-width="0.75" stroke-miterlimit="10"/>
<path d="M27.4009 88.0755C26.7485 92.8599 27.9446 95.252 29.032 96.4481C30.2281 97.753 32.0765 98.4054 33.7076 100.798C34.36 101.776 34.7949 102.755 35.0124 103.298C25.1175 107.43 15.2226 111.562 5.32773 115.694C4.89279 114.498 4.24037 112.758 4.0229 110.584C3.47923 106.017 4.67532 103.733 4.78406 100.363C4.8928 95.0346 2.0657 93.9472 1.19582 89.1629C-0.652681 79.5942 7.50244 66.8722 16.2012 65.8936C20.2244 65.4586 24.2476 67.5246 24.2476 67.6333C24.2476 67.6333 22.1816 66.6547 20.6594 67.5246C18.4847 68.7207 18.9196 73.0701 18.9196 73.94C19.2458 77.8544 21.3118 80.7903 22.8341 82.4213C22.5078 82.53 21.9642 82.7475 21.4205 83.3999C21.203 83.6174 20.5506 84.3785 20.5506 85.1397C20.4419 86.8794 23.269 88.9454 25.8786 88.5105C26.6398 88.4017 27.1835 88.1842 27.4009 88.0755Z" fill="#111111"/>
<path d="M27.2923 69.9165C26.8573 70.0252 25.6612 70.4602 24.7913 71.6563C23.9214 72.9611 23.8127 74.2659 23.8127 74.5921" stroke="#111111" stroke-width="0.75" stroke-miterlimit="10"/>
<path d="M75.7885 48.4959C76.2235 48.061 76.6584 47.4086 76.4409 46.8649C76.3322 46.3212 75.7885 46.3212 75.4623 45.7775C75.3536 45.4513 75.2448 44.7989 75.8972 43.8203" stroke="#111111" stroke-width="0.75" stroke-miterlimit="10"/>
<path d="M7.28526 79.9207C6.08918 78.8333 5.11054 78.0722 4.13192 78.2896C0.978602 78.8333 0.21747 88.2933 0 97.3183C2.06597 96.9921 4.13192 96.6659 6.30662 96.3397C9.13373 95.6873 10.3299 94.2737 10.7648 93.6213C13.5919 89.8156 11.091 83.1827 7.28526 79.9207Z" fill="#111111"/>
<path d="M224.429 100.037C224.646 100.254 224.864 100.58 224.973 101.015C225.19 102.972 221.167 105.582 217.252 106.235C214.425 106.669 214.534 105.582 210.946 105.908C209.858 106.017 205.835 106.452 202.029 108.953C200.181 110.149 200.29 110.584 198.55 111.671C196.158 113.085 193.766 113.629 192.135 113.846" stroke="#111111" stroke-width="0.75" stroke-miterlimit="10"/>
<path d="M213.664 99.8188C213.338 100.036 211.816 100.906 211.707 102.211C211.598 103.842 213.556 105.908 216.818 106.234" stroke="#111111" stroke-width="0.75" stroke-miterlimit="10"/>
<path d="M45.6687 93.1858C48.3871 92.7509 51.7579 92.5334 55.5636 92.7509C58.8257 92.8596 61.6528 93.2946 64.045 93.8382C65.4585 92.3159 66.8721 90.6849 68.1769 89.1626" stroke="white" stroke-width="0.75" stroke-miterlimit="10"/>
<path d="M81.1164 131.896C81.9863 132.114 88.2929 133.418 93.2947 129.286C99.9275 123.85 99.0577 113.411 97.3179 112.867C96.6655 112.65 95.9044 114.172 94.1646 115.803C91.4463 118.304 86.7706 120.479 77.7456 119.718" stroke="#111111" stroke-width="0.75" stroke-miterlimit="10"/>
</svg>
